#!OML:ASF H:\GeneralSubjects\Female5\Project 1\Capture day 1\Session 1\Female5.ASF
:FULLY-SPECIFIED
:DEGREES
308
root -24.7139 15.8396 4.80558 -171.929 -7.46124 -176.039
lowerback 7.39564 1.57073 2.94706
upperback -9.46373 2.23748 3.6891
thorax -14.6611 0.672635 2.09979
lowerneck -17.1835 -2.53841 -6.83655
upperneck 27.7804 -7.35086 12.7532
head 12.8738 -3.04593 4.78088
rclavicle -6.55989e-015 1.00187e-013
rhumerus -32.0071 -18.4247 -13.666
rradius 130.093
rwrist 7.72202
rhand -49.587 -4.04405
rfingers 7.12502
rthumb -22.1926 -32.7901
lclavicle -6.55989e-015 1.00187e-013
lhumerus -28.4318 21.9351 27.2451
lradius 121.559
lwrist -30.4994
lhand -50.8733 56.9569
lfingers 7.12502
lthumb -23.427 -274.449
rfemur 10.8267 34.5036 33.5499
rtibia -4.63851
rfoot -37.5208 -33.1581
rtoes 1.77126
lfemur -22.727 -18.3173 -12.218
ltibia 25.3734
lfoot -15.9706 4.64842
ltoes -65.4699
309
root -24.8549 15.854 4.7569 -171.788 -6.78525 -176.51
lowerback 7.36364 1.6183 2.71474
upperback -9.49758 2.24672 3.3392
thorax -14.6701 0.684909 1.83539
lowerneck -17.2855 -2.4249 -6.57261
upperneck 28.1716 -7.38131 12.7284
head 13.0501 -3.05099 4.73022
rclavicle 6.75868e-015 5.08889e-014
rhumerus -32.329 -18.2602 -13.9476
rradius 130.217
rwrist 7.57067
rhand -49.5951 -3.65349
rfingers 7.12502
rthumb -22.2004 -32.3986
lclavicle 6.75868e-015 5.08889e-014
lhumerus -28.6412 21.5342 27.6722
lradius 121.355
lwrist -30.6275
lhand -51.0592 56.7899
lfingers 7.12502
lthumb -23.6054 -274.639
rfemur 10.1787 33.4466 31.9293
rtibia -4.07171
rfoot -36.6487 -31.8269
rtoes 0.436019
lfemur -21.6528 -17.9292 -13.4899
ltibia 24.2514
lfoot -15.8983 4.82568
ltoes -65.1457
310
root -24.9962 15.8674 4.71095 -171.619 -6.09178 -177.008
lowerback 7.32679 1.69885 2.53854
upperback -9.54913 2.29996 2.93009
thorax -14.6927 0.706315 1.46603
lowerneck -17.3598 -2.29167 -6.2569
upperneck 28.5767 -7.38889 12.6548
head 13.2207 -3.04701 4.65481
rclavicle -1.28216e-014 -1.11319e-014
rhumerus -32.7491 -18.1331 -14.2071
rradius 130.373
rwrist 7.30398
rhand -49.5347 -3.29889
rfingers 7.12502
rthumb -22.1424 -32.0509
lclavicle -1.28216e-014 -1.11319e-014
lhumerus -28.7714 21.0367 28.1727
lradius 121.171
lwrist -30.6953
lhand -51.2723 56.5843
lfingers 7.12502
lthumb -23.8097 -274.871
rfemur 9.45158 32.4227 30.232
rtibia -3.46239
rfoot -35.8311 -30.4582
rtoes -0.64272
lfemur -20.6734 -17.6412 -14.7904
ltibia 23.1845
lfoot -15.8444 5.15711
ltoes -64.8888
311
root -25.1383 15.8793 4.66757 -171.435 -5.37288 -177.526
lowerback 7.29005 1.7949 2.39999
upperback -9.60242 2.3737 2.49544
thorax -14.7146 0.730182 1.04398
lowerneck -17.4727 -2.14848 -5.91873
upperneck 29.0105 -7.38246 12.5508
head 13.4096 -3.03552 4.56644
rclavicle 1.13307e-014 5.56597e-014
rhumerus -33.1885 -18.0209 -14.5428
rradius 130.561
rwrist 7.0091
rhand -49.4887 -3.16566
rfingers 7.12502
rthumb -22.0983 -31.9229
lclavicle 1.13307e-014 5.56597e-014
lhumerus -28.919 20.4836 28.7423
lradius 121.031
lwrist -30.654
lhand -51.5005 56.1076
lfingers 7.12502
lthumb -24.0286 -275.377
rfemur 8.67238 31.393 28.4747
rtibia -2.85389
rfoot -34.8862 -29.1948
rtoes -2.0384
lfemur -19.7723 -17.4405 -16.129
ltibia 22.1667
lfoot -15.7543 5.78358
ltoes -64.9897
312
root -25.2804 15.8889 4.62629 -171.254 -4.62176 -178.045
lowerback 7.25878 1.89373 2.28089
upperback -9.64055 2.45258 2.07079
thorax -14.7212 0.75432 0.621646
lowerneck -17.6192 -1.97286 -5.56837
upperneck 29.447 -7.30688 12.3995
head 13.5977 -2.99321 4.46899
rclavicle 3.67752e-015 7.95139e-015
rhumerus -33.5538 -17.9248 -14.9833
rradius 130.738
rwrist 6.69656
rhand -49.4909 -3.14377
rfingers 7.12502
rthumb -22.1004 -31.9007
lclavicle 3.67752e-015 7.95139e-015
lhumerus -29.1676 19.9135 29.4005
lradius 120.932
lwrist -30.5397
lhand -51.7203 55.4066
lfingers 7.12502
lthumb -24.2393 -276.105
rfemur 7.86066 30.346 26.7027
rtibia -2.24598
rfoot -33.7731 -28.1092
rtoes -4.03693
lfemur -18.9268 -17.3835 -17.454
ltibia 21.2197
lfoot -15.8257 6.35366
ltoes -64.9012
313
root -25.4217 15.8955 4.5866 -171.095 -3.82539 -178.54
lowerback 7.24075 1.98948 2.16974
upperback -9.65081 2.53186 1.68475
thorax -14.7041 0.780643 0.237875
lowerneck -17.8072 -1.76794 -5.21656
upperneck 29.8721 -7.15521 12.1975
head 13.7803 -2.91756 4.36396
rclavicle 9.44227e-015 -3.49861e-014
rhumerus -33.8094 -17.8301 -15.5409
rradius 130.882
rwrist 6.43669
rhand -49.5463 -3.18743
rfingers 7.12502
rthumb -22.1535 -31.9381
lclavicle 9.44227e-015 -3.49861e-014
lhumerus -29.5964 19.3696 30.1633
lradius 120.817
lwrist -30.5237
lhand -51.8962 54.7421
lfingers 7.12502
lthumb -24.408 -276.793
rfemur 7.02872 29.3079 24.9842
rtibia -1.59821
rfoot -32.5749 -27.2279
rtoes -6.58775
lfemur -18.1078 -17.3969 -18.7433
ltibia 20.3271
lfoot -16.0186 6.88837
ltoes -64.7433
